<svg viewBox="390 290 260 220" width="512" height="512" version="1.1" xmlns="http://www.w3.org/2000/svg">
<style>.vertex { font-family: Consolas } .edge { font-family: Consolas } .text { font-family: Consolas }</style>
    <path d="M 420 320L 584.996337890625 320" fill="none" stroke="#000000" stroke-width="2"></path>
    <path transform="translate(584.996337890625 320) rotate(0)" d="M-1, -5 L 14 0 L -1, 5 z" fill="#000000"></path>
    <path d="M 420 320L 592.674560546875 458.1396484375" fill="none" stroke="#000000" stroke-width="2"></path>
    <path transform="translate(592.674560546875 458.1396484375) rotate(38.659808254090095)" d="M-1, -5 L 14 0 L -1, 5 z" fill="#000000"></path>
    <path d="M 620 320L 620 445.0048828125" fill="none" stroke="#000000" stroke-width="2"></path>
    <path transform="translate(620 445.0048828125) rotate(90)" d="M-1, -5 L 14 0 L -1, 5 z" fill="#000000"></path>
    <path d="M 420 480L 420 354.9951171875" fill="none" stroke="#000000" stroke-width="2"></path>
    <path transform="translate(420 354.9951171875) rotate(-90)" d="M-1, -5 L 14 0 L -1, 5 z" fill="#000000"></path>
    <path d="M 420 480L 592.674560546875 341.8603515625" fill="none" stroke="#000000" stroke-width="2"></path>
    <path transform="translate(592.674560546875 341.8603515625) rotate(-38.659808254090095)" d="M-1, -5 L 14 0 L -1, 5 z" fill="#000000"></path>
    <path d="M 420 480L 584.996337890625 480" fill="none" stroke="#000000" stroke-width="2"></path>
    <path transform="translate(584.996337890625 480) rotate(0)" d="M-1, -5 L 14 0 L -1, 5 z" fill="#000000"></path>
    <circle cx="420" cy="320" r="20" fill="#ffffff" stroke="#000000" stroke-width="1.5"/>
    <text class="vertex" x="420" y="320" dominant-baseline="middle" text-anchor="middle" fill="#000000" font-size="18px">1</text>
    <circle cx="620" cy="320" r="20" fill="#ffffff" stroke="#000000" stroke-width="1.5"/>
    <text class="vertex" x="620" y="320" dominant-baseline="middle" text-anchor="middle" fill="#000000" font-size="18px">2</text>
    <circle cx="420" cy="480" r="20" fill="#ffffff" stroke="#000000" stroke-width="1.5"/>
    <text class="vertex" x="420" y="480" dominant-baseline="middle" text-anchor="middle" fill="#000000" font-size="18px">3</text>
    <circle cx="620" cy="480" r="20" fill="#ffffff" stroke="#000000" stroke-width="1.5"/>
    <text class="vertex" x="620" y="480" dominant-baseline="middle" text-anchor="middle" fill="#000000" font-size="18px">4</text>
</svg>